<?xml version="1.0"?>
<svg xmlns="http://www.w3.org/2000/svg" viewBox="0 0 512 512" width="512" height="512"><g id="Fill_out_line" data-name="Fill out line"><path d="M376,104l31.71574-31.71574a28.28425,28.28425,0,0,1,20-8.28426h0A28.28425,28.28425,0,0,1,456,92.28424v11.14727A136.56841,136.56841,0,0,1,416,200l0,0v48l32-32a136.56841,136.56841,0,0,0,40-96.56845V88a56,56,0,0,0-56-56H411.71572a28.28425,28.28425,0,0,0-20,8.28426L368,64Z" style="fill:#a0eaff"/><path d="M442.89014,367.71,400.26,468.47A31.99181,31.99181,0,0,1,370.79,488H245.21a31.99181,31.99181,0,0,1-29.47-19.53L173.10986,367.71a196.3399,196.3399,0,0,1,8.78028-171.16,199.74692,199.74692,0,0,0,14.48-159.44L192,24H392V68.69A199.43514,199.43514,0,0,0,398.71,120q2.14527,8.09994,4.98,16a199.26462,199.26462,0,0,0,13.04,28.96l3.66016,6.65,13.71972,24.94A196.37445,196.37445,0,0,1,442.89014,367.71Z" style="fill:#65dcff"/><path d="M304,24,282.8501,71.59a15.87305,15.87305,0,0,1-14.17017,9.48L256,24Z" style="fill:#57c1ff"/><path d="M268.67993,81.07a15.74051,15.74051,0,0,1-13.07983-6.16L216,24h40Z" style="fill:#a0eaff"/><path d="M442.89014,367.71,400.26,468.47A31.99181,31.99181,0,0,1,370.79,488H245.21a31.99181,31.99181,0,0,1-29.47-19.53L173.10986,367.71a196.32255,196.32255,0,0,1-12.17993-112.64L196,220a62.23836,62.23836,0,0,1,88,0,62.22637,62.22637,0,0,0,88,0l48.39014-48.39,13.71972,24.94A196.37445,196.37445,0,0,1,442.89014,367.71Z" style="fill:#e6e6e6"/><path d="M464,360.00005V360a158.53306,158.53306,0,0,0-26.62558-87.93832l0-.00008a25.6888,25.6888,0,0,0-42.74874,0l0,.00008A158.53306,158.53306,0,0,0,368,360v.0001a48,48,0,0,0,48,48h.0001A48,48,0,0,0,464,360.00005Z" style="fill:#fff1d8"/><path d="M432,416v40l16.47,3.29A29.29651,29.29651,0,0,1,472,488H360a29.28594,29.28594,0,0,1,23.53-28.71L400,456V416a49.75225,49.75225,0,0,1-40-48.79V344H472v23.21A49.75072,49.75072,0,0,1,432,416Z" style="fill:#dc9265"/><path d="M328,456a32.00409,32.00409,0,0,1-32,32H56a31.87085,31.87085,0,0,1-21.16992-8c-.5-.43994-.99-.9-1.46-1.37A31.89975,31.89975,0,0,1,24,456Z" style="fill:#dc9265"/><path d="M329.14014,376A112.77983,112.77983,0,0,1,296,456H48V296H296A112.77963,112.77963,0,0,1,329.14014,376Z" style="fill:#f2e368"/><circle cx="152" cy="408" r="16" style="fill:#eacf4d"/><circle cx="96" cy="368" r="16" style="fill:#eacf4d"/><circle cx="168" cy="344" r="16" style="fill:#eacf4d"/><circle cx="248" cy="400" r="24" style="fill:#eacf4d"/><path d="M329.14014,376A112.77983,112.77983,0,0,1,296,456H48V435.42993H228.42993c43.15015,0,79.07007-34.1499,80.1001-77.28992.02-.9.03-1.81.03-2.71008A112.90016,112.90016,0,0,0,291.72,296H296A112.77963,112.77963,0,0,1,329.14014,376Z" style="fill:#eacf4d"/><path d="M432,24H411.71582A36.31493,36.31493,0,0,0,400,25.93494V24a8.00008,8.00008,0,0,0-8-8H192a8,8,0,0,0-7.58984,10.52979l4.37109,13.11376a192.31029,192.31029,0,0,1-13.89648,153.05616,203.24212,203.24212,0,0,0-24.32032,78.51855l15.92383,1.56348a187.32271,187.32271,0,0,1,22.416-72.37158A208.3627,208.3627,0,0,0,203.96094,34.584L203.09961,32h8.988l37.19653,47.82471a23.77512,23.77512,0,0,0,18.87012,9.2705,24.67134,24.67134,0,0,0,2.98144-.18164A23.80569,23.80569,0,0,0,290.16016,74.8374L309.199,32H384V68.68945A207.86818,207.86818,0,0,0,390.46,120H280v16h115.248a207.29055,207.29055,0,0,0,14.46972,32.81494l.76392,1.38892-44.13892,44.1394a54.28572,54.28572,0,0,1-76.68554,0A70.01358,70.01358,0,0,0,212.918,199.189l6.16406,14.76465a54.06974,54.06974,0,0,1,59.26074,11.70313,70.30589,70.30589,0,0,0,99.31446,0l40.854-40.85437,8.58447,15.60779a188.517,188.517,0,0,1,16.80567,41.6748l15.44726-4.16992q-2.27965-8.44473-5.28882-16.67078A143.61154,143.61154,0,0,0,496,119.43164V88A64.07239,64.07239,0,0,0,432,24ZM232.35669,32h17.22583l6.89038,31.00677Zm43.18237,36.33936a8.311,8.311,0,0,1-1.08862,1.80975L265.9729,32h25.717Zm125.6897,21.74536,12.14331-12.14331A20.28443,20.28443,0,0,1,448,92.28418v11.14746a129.41385,129.41385,0,0,1-19.0127,67.21747l-5.25-9.54511A192.31072,192.31072,0,0,1,401.22876,90.08472ZM480,119.43164a127.62384,127.62384,0,0,1-32.65137,85.60944q-2.91431-6.26935-6.2334-12.34186l-3.39306-6.169A145.48155,145.48155,0,0,0,464,103.43164V92.28418a36.28446,36.28446,0,0,0-61.94141-25.65674L400,68.686V43.74884A20.15,20.15,0,0,1,411.71582,40H432a48.05468,48.05468,0,0,1,48,48Z"/><rect x="248" y="120" width="16" height="16"/><path d="M472,336h-1.76a167.19,167.19,0,0,0-26.20972-68.376,33.68744,33.68744,0,0,0-56.06054,0A167.19,167.19,0,0,0,361.76,336H360a8.00008,8.00008,0,0,0-8,8v23.208a57.94654,57.94654,0,0,0,40,54.95947v27.27441l-10.03418,2.00684A37.37455,37.37455,0,0,0,352,488a8.00008,8.00008,0,0,0,8,8H472a8.00008,8.00008,0,0,0,8-8,37.37466,37.37466,0,0,0-29.96484-36.55127L440,449.44189V422.16748A57.94654,57.94654,0,0,0,480,367.208V344A8.00008,8.00008,0,0,0,472,336Zm-70.71777-59.501a17.68826,17.68826,0,0,1,29.43554,0A151.15339,151.15339,0,0,1,454.06738,336H377.93262A151.15339,151.15339,0,0,1,401.28223,276.499ZM464,367.208a41.8709,41.8709,0,0,1-33.56934,40.94726A8,8,0,0,0,424,416v40a8,8,0,0,0,6.43066,7.84473l16.4668,3.29345A21.33441,21.33441,0,0,1,462.42969,480H369.57031a21.33593,21.33593,0,0,1,15.53321-12.86182l16.46582-3.29345A8,8,0,0,0,408,456V416a8,8,0,0,0-6.43066-7.84473A41.8709,41.8709,0,0,1,368,367.208V352h96Z"/><path d="M301.65723,290.34326A8.00076,8.00076,0,0,0,296,288H48a8.00008,8.00008,0,0,0-8,8V448H24a8.00008,8.00008,0,0,0-8,8,40.04552,40.04552,0,0,0,40,40H296a40.04552,40.04552,0,0,0,40-40,8.00008,8.00008,0,0,0-8-8H313.4248A121.32349,121.32349,0,0,0,301.65723,290.34326ZM296,480H56a24.04166,24.04166,0,0,1-22.62891-16H318.62891A24.04166,24.04166,0,0,1,296,480ZM56,448V304H292.61523a105.28025,105.28025,0,0,1,0,144Z"/><path d="M152,384a24,24,0,1,0,24,24A24.02718,24.02718,0,0,0,152,384Zm0,32a8,8,0,1,1,8-8A8.00917,8.00917,0,0,1,152,416Z"/><path d="M96,344a24,24,0,1,0,24,24A24.02718,24.02718,0,0,0,96,344Zm0,32a8,8,0,1,1,8-8A8.00917,8.00917,0,0,1,96,376Z"/><path d="M168,368a24,24,0,1,0-24-24A24.02718,24.02718,0,0,0,168,368Zm0-32a8,8,0,1,1-8,8A8.00917,8.00917,0,0,1,168,336Z"/><circle cx="288" cy="360" r="8"/><circle cx="232" cy="328" r="8"/><circle cx="120" cy="328" r="8"/><circle cx="88" cy="424" r="8"/><circle cx="192" cy="384" r="8"/><path d="M248,368a32,32,0,1,0,32,32A32.03635,32.03635,0,0,0,248,368Zm0,48a16,16,0,1,1,16-16A16.01833,16.01833,0,0,1,248,416Z"/></g></svg>
